<svg version="1" xmlns="http://www.w3.org/2000/svg" width="3285.333" height="3285.333" viewBox="0 0 2464.000000 2464.000000"><path d="M1 752.8c0 .5.8 1.3 1.9 1.8 1.8.9 3.3 2 15.6 11.9 3.5 2.7 7.3 5.7 8.5 6.5 1.2.8 2.8 2 3.4 2.5.6.6 3.1 2.6 5.6 4.5 2.5 1.9 4.7 3.7 5 4 .3.3 2.1 1.7 4 3 1.9 1.4 4.4 3.2 5.5 4.2 2.2 1.9 21.4 16.9 26.5 20.8 1.8 1.4 3.8 3 4.4 3.5.6.6 2.7 2.2 4.6 3.5 1.9 1.3 4.9 3.7 6.5 5.2 1.7 1.5 3.3 2.8 3.6 2.8.3 0 1.7 1 3 2.1 1.3 1.2 4.9 4 7.9 6.3 3 2.2 5.7 4.3 6 4.6.3.3 3 2.4 6 4.7 3 2.3 6.4 5 7.6 6 1.1 1 2.7 2.2 3.6 2.8 1.5.9 16.1 12.3 23.8 18.5 1.9 1.6 10.3 8 18.5 14.4 8.3 6.4 15.9 12.4 17.1 13.3 1.1 1 3.6 2.9 5.4 4.3 2.7 2 21.6 16.6 25.5 19.8.6.4 3 2.3 5.5 4.2 2.4 1.9 5 3.9 5.6 4.5.7.5 2.5 2 4 3.2 1.6 1.2 5.5 4.2 8.6 6.7 3.2 2.5 6.1 4.6 6.4 4.6.4 0 1.4.8 2.3 1.8.9.9 4.3 3.7 7.6 6.2 7.1 5.4 6.9 5.2 17.2 13.4 4.5 3.6 8.7 6.6 9.3 6.6.5 0 1 .4 1 .8s3.3 3.3 7.3 6.3c3.9 2.9 7.4 5.7 7.7 6 .3.3 4.6 3.6 9.5 7.4 5 3.8 12.6 9.7 17 13.2s8.5 6.6 9 7.1c4.6 3.5 10.1 7.8 10.5 8.2.3.3 2.1 1.7 4 3s3.7 2.7 4 3c.3.4 7.7 6.3 16.5 13.1 17.4 13.5 19 14.8 21.1 16.7.8.7 1.4 1 1.4.5 0-.4.4-.3.8.4.4.6 3.4 3.2 6.7 5.7 3.3 2.5 7.5 5.8 9.4 7.3 3.3 2.7 13.2 10.4 21.7 16.8 2.1 1.6 5.3 4.2 6.9 5.7 1.7 1.6 3.3 2.8 3.8 2.8.4 0 1.6.8 2.6 1.7 1.1 1 2.6 2.2 3.3 2.8 3.3 2.5 11.3 9 11.8 9.6.3.3 1.2 1 2.1 1.5.9.5 3.4 2.3 5.5 4 2.2 1.7 6.5 5.2 9.6 7.8 3.2 2.5 6.2 4.6 6.7 4.6s1.1.4 1.3.8c.2.5 2.6 2.6 5.3 4.7 2.8 2 5.2 4 5.5 4.4.3.3 5.2 4.2 11 8.6 5.8 4.3 10.7 8.3 10.8 8.7.2.4.8.8 1.3.8.6 0 2.1 1.2 3.4 2.6 1.4 1.5 2.5 2.3 2.5 1.8 0-.5.4-.4.8.1.8 1.1 4.8 4.5 10.2 8.5 1.8 1.4 3.9 3.1 4.6 3.7.7.7 1.7 1.3 2.2 1.3.6 0 1.2.3 1.4.7.4 1 15.6 13.3 16.3 13.3.3 0 1.4.8 2.4 1.7 1.1 1 2.6 2.3 3.3 2.8.7.6 3.3 2.6 5.8 4.5s4.7 3.7 5 4c.3.3 3.2 2.5 6.5 5s6.5 5 7.1 5.5c.6.6 4.7 3.7 9 7s8.1 6.2 8.4 6.5c.3.3 2.5 2.1 5 4s5 3.9 5.6 4.5c.6.5 2.2 1.7 3.4 2.5 1.3.8 3 2.3 3.9 3.2.8 1 1.9 1.8 2.3 1.8.7 0 3.2 1.9 7.2 5.5.6.5 3.8 3 7.1 5.5s6.5 4.9 7.1 5.5c.6.5 2.3 1.9 3.9 3s4.2 3.2 5.8 4.7c1.7 1.6 3.4 2.8 3.8 2.8.5 0 2.2 1.2 3.8 2.7 3.6 3.4 4.6 4.2 9 7.3 3.5 2.5 7.4 5.6 9.5 7.5.6.6 2.7 2.2 4.6 3.5 1.9 1.3 4 2.9 4.7 3.5.6.5 2.3 1.9 3.8 3 1.4 1.1 3.7 3 5 4.2 1.3 1.3 2.7 2.3 3 2.3.3 0 3.1 2.1 6.3 4.6 6.8 5.5 7.4 6 13.2 10.4 2.5 1.9 4.7 3.7 5 4 .3.3 3.2 2.5 6.5 5s6.2 4.7 6.5 5c.3.3 3.7 3 7.5 5.9 3.9 3 7.6 6.1 8.3 7 .6.8 1.2 1.2 1.2.8 0-.4 1 .2 2.3 1.2 4.8 4.2 6.6 5.7 8.7 7.1 1.3.8 3.6 2.5 5.1 3.8 2.9 2.4 19.8 15.6 25.9 20.2 10.6 8.1 19.5 15.3 19.8 16.1.2.5.9.9 1.5.9.7 0 2.3 1 3.7 2.3 1.4 1.2 6.6 5.4 11.5 9.2 14.2 10.9 21.9 16.9 23.1 18 .6.5 2.6 2.1 4.4 3.5 1.8 1.4 5.9 4.5 9 7 3.2 2.5 9.9 7.6 14.9 11.5 5.1 3.8 10.4 8 11.9 9.3 1.5 1.2 6.1 4.8 10.2 8 4.1 3.1 7.7 5.9 8 6.2.3.3 2.9 2.3 5.8 4.5 2.8 2.1 5.2 4.3 5.2 4.9 0 .5.3.7.6.3.4-.3 1.2-.1 1.8.6.7.7 2.7 2.3 4.5 3.7 1.8 1.4 5 3.8 7.1 5.5 2.1 1.6 5 3.9 6.4 4.9 1.5 1.1 3.6 2.7 4.6 3.5 4.2 3.6 5.8 4.9 12.7 10 4 3 7.3 5.7 7.3 6.1 0 .4 1 1.2 2.3 1.7 1.2.6 3.6 2.2 5.2 3.6 5.5 4.5 13.9 11.2 21.3 16.7 3.9 3 7.2 5.8 7.2 6.2 0 .5.6.8 1.4.8.8 0 1.6.4 1.8.8.2.5 5.3 4.6 11.3 9.2 6.1 4.6 11.8 9 12.7 9.9 3.2 3 4.7 4.1 5.7 4.1.5 0 1.1.3 1.3.8.2.4 3.5 3.2 7.3 6.2 3.9 3 7.2 5.8 7.3 6.2.2.5 1 .8 1.8.8s1.4.4 1.4.9 1.5 1.8 3.3 3c1.7 1.1 4.1 2.8 5.2 3.8 1.1 1 7 5.6 13 10.3 6.1 4.6 11.2 8.7 11.5 9 .3.3 2.1 1.7 4.2 3.2 2 1.5 4.3 3.5 5.2 4.4.9.8 1.6 1.2 1.6.7 0-.4.4-.3.8.3s5 4.4 10.2 8.4c15.7 12.2 23.5 18.5 23.8 19.2.2.5.8.8 1.4.8.5 0 1.5.6 2.2 1.2.7.7 2.8 2.4 4.6 3.8 5.7 4.3 24.4 19 26.8 21.1 1.2 1 2.5 1.9 2.8 1.9.3 0 1.1.6 1.8 1.2.7.7 2.5 2.2 4 3.3 2.7 2 4.9 3.8 9.4 7.6 1.2 1 2.6 1.9 3.2 1.9.5 0 1.5.8 2.2 1.8.7.9 2.5 2.5 3.9 3.4 1.4.9 3.2 2.3 4 3 .8.8 3.2 2.7 5.4 4.3 2.2 1.7 4.5 3.4 5.2 4 .7.5 1.8 1.5 2.5 2.1 5.9 4.8 5.3 5 17.4-4.4 6.1-4.8 12.5-9.8 14.3-11.2 1.8-1.4 5-3.9 7.1-5.5 2.1-1.7 5.9-4.6 8.5-6.5 2.6-1.9 5.7-4.4 6.9-5.5 1.2-1.1 5.3-4.3 9-7 3.7-2.8 7.8-6 9.1-7.3 1.3-1.2 2.8-2.2 3.4-2.2.5 0 1.1-.3 1.3-.8.2-.6 8-6.8 22.3-17.8 1.1-.8 3.4-2.6 5-3.9 1.7-1.3 8-6.2 14-10.9 12.4-9.6 11.1-8.6 18.6-14.6 3-2.5 6.8-5.4 8.3-6.5 1.6-1.1 4.3-3.1 6-4.5 1.7-1.4 3.8-3 4.6-3.7.8-.7 5.3-4.2 10-7.8 4.7-3.6 10-7.8 11.9-9.3 1.9-1.5 7.1-5.5 11.5-9 4.5-3.5 9.5-7.3 11.1-8.6 1.7-1.3 10.7-8.3 20-15.5 9.4-7.2 17.9-13.9 19-14.9 1.1-.9 4.7-3.7 8-6.2s6.2-4.7 6.5-5c.3-.3 3.4-2.8 7-5.5s6.7-5.2 7-5.5c.3-.4 3.2-2.6 6.5-5.1 3.3-2.4 6.5-4.9 7.1-5.4.7-.6 2.5-2 4-3.2 1.6-1.2 6.8-5.3 11.6-9 4.7-3.7 12.4-9.7 17-13.3 4.5-3.5 8.4-6.8 8.6-7.2.2-.5 1-.8 1.7-.8s1.5-.3 1.7-.8c.2-.4 2.3-2.3 4.8-4.2 2.5-1.9 5.1-3.9 5.7-4.5.7-.5 2.4-1.9 3.9-3 1.4-1.1 3.5-2.8 4.5-3.8 1.1-.9 2.3-1.7 2.9-1.7.6 0 1-.3 1-.8 0-.4 1.6-1.8 3.5-3.1s4.3-3.1 5.4-4c2.8-2.4 5-4 12.1-9.6 3.6-2.7 6.6-5.3 6.8-5.7.2-.5.9-.8 1.6-.8.6 0 1.8-.9 2.6-2s2-2 2.6-2c.7 0 1.4-.4 1.6-.8.2-.5 3.3-3.1 7-5.9 3.7-2.8 7.3-5.6 8-6.2.7-.6 4.9-3.9 9.3-7.3 4.4-3.5 8.5-6.7 9.2-7.3.7-.5 5.3-4.2 10.4-8 5-3.9 12.9-10 17.5-13.8 4.6-3.7 8.7-6.7 9.2-6.7.4 0 1.4-.9 2.2-2 .8-1.1 2-2 2.6-2 .7 0 1.4-.4 1.6-.8.2-.4 3.1-2.9 6.5-5.5s6.8-5.3 7.5-6c.7-.7 2.9-2.4 4.8-3.7 1.9-1.3 3.7-2.7 4-3 .3-.4 3.5-2.9 7.2-5.7 3.7-2.8 7.7-6.1 8.9-7.2 1.3-1.2 2.6-2.1 3-2.1.4 0 1.4-.6 2.1-1.3.7-.7 7.6-6.2 15.3-12.2 7.7-6 14.2-11.3 14.3-11.7.2-.4.8-.8 1.4-.8.5 0 1.5-.6 2.2-1.3.7-.6 2.8-2.3 4.6-3.7 1.8-1.4 3.8-3 4.4-3.6.6-.5 3.8-3 7-5.5 10.3-7.8 11.1-8.3 12.2-9.4.7-.5 2.4-1.9 3.9-3 3.6-2.6 14.5-11.1 16.5-12.8.8-.8 7.6-6 15-11.8 7.4-5.7 14.2-10.9 15-11.6.8-.6 8-6.3 16-12.5s14.7-11.6 14.8-12c.2-.5 1-.8 1.7-.8s1.5-.3 1.7-.8c.2-.4 3.2-3 6.8-5.7 3.6-2.8 6.7-5.2 7-5.5.3-.3 4.5-3.7 9.5-7.5 4.9-3.9 9.7-7.5 10.5-8.2 3.2-2.6 18.8-14.7 26-20.1 4.1-3.1 8.6-6.7 10-7.9 1.4-1.2 9.3-7.4 17.5-13.8 8.3-6.3 16.4-12.6 18-13.9 1.7-1.3 5.7-4.5 9-7 8.5-6.5 10.6-8.2 13.9-11.1 1.6-1.4 3.2-2.5 3.5-2.5.3 0 2-1.3 3.8-2.8 1.7-1.5 4.4-3.7 6-4.9 8.1-6.2 11-8.5 13.3-10.3 1.4-1.1 5.4-4.3 9-7 3.6-2.8 7.2-5.6 8-6.3.9-.7 4.5-3.4 8-6.2 3.6-2.7 6.7-5.3 6.8-5.7.2-.5.8-.8 1.3-.8s2-.9 3.2-2c1.2-1.2 4-3.4 6.2-5.1 6.6-5.1 10.3-7.9 23.1-18.1 6.7-5.3 12.5-9.4 12.8-9.1.3.4.6.2.6-.3 0-.6 2.4-2.8 5.3-4.9 2.8-2.2 5.8-4.6 6.6-5.3.8-.8 3.9-3.2 7-5.5 3.1-2.2 6.1-4.6 6.7-5.1.6-.6 2.3-2 3.8-3.1 1.6-1.1 3.3-2.5 4-3 .6-.6 2.7-2.2 4.6-3.5 1.9-1.3 3.7-2.7 4-3.1.4-.6 6-5 14.8-11.7 1.3-.9 3.1-2.4 4.1-3.3 1-.9 4.5-3.6 7.7-6 3.3-2.4 8.2-6.1 10.9-8.4 2.8-2.2 6.6-5.1 8.4-6.5 1.9-1.4 4.3-3.3 5.5-4.2 2.3-1.9 2.1-1.8 8.6-6.8 2.5-1.9 4.7-3.8 4.8-4.2.2-.5 1-.8 1.7-.8s1.5-.4 1.7-.8c.2-.5 3.9-3.6 8.3-7.1 4.4-3.4 9.4-7.3 11-8.6 1.7-1.2 12.7-9.8 24.5-19s22.4-17.4 23.5-18.4c1.1-.9 4.9-3.8 8.5-6.5 3.6-2.7 7.2-5.6 8-6.3.8-.8 8-6.4 16-12.5 8-6.2 14.7-11.6 14.8-12 .2-.4.8-.8 1.3-.8s2.3-1.4 4.1-3c1.7-1.7 3.4-3 3.8-3 .4 0 2-1.1 3.6-2.5 1.6-1.5 4.1-3.3 5.7-4.3 1.5-.9 2.7-1.9 2.7-2.3 0-.3 1.7-1.8 3.8-3.2 2.1-1.4 5.4-3.9 7.3-5.6 1.8-1.7 3.7-3.1 4.1-3.1.4 0 1.8-1 3.1-2.2 1.3-1.3 10.2-8.4 19.8-15.8 9.6-7.4 17.9-13.8 18.4-14.3 1.9-1.5 32-24.9 34.8-27.1 1.5-1.1 4-3.1 5.5-4.4 1.5-1.3 3.9-3 5.5-4 1.5-.9 2.7-2 2.7-2.4 0-.4-145.6-.8-323.5-.8h-323.6l-5.7 3.7c-3.1 2-7.7 4.7-10.2 6.1-2.5 1.4-4.7 2.8-5 3.2-.3.3-3.2 2.2-6.5 4-3.3 1.9-6.1 3.7-6.3 4.2-.2.4-.8.8-1.4.8-.5 0-2.9 1.3-5.3 3-2.4 1.6-4.8 3-5.4 3-.6 0-1.1.3-1.1.8 0 .4-1.3 1.3-2.9 2-1.6.7-3.9 2.2-5.1 3.2-1.3 1.1-2.9 2-3.7 2-.7 0-1.3.4-1.3.9s-.8 1.1-1.7 1.5c-1 .3-3.6 1.7-5.8 3.1-2.2 1.4-4.7 2.8-5.5 3.2-.8.4-1.9 1.1-2.5 1.5-2.3 1.9-13.6 8.8-14.5 8.8-.5 0-1.5.6-2.2 1.4-1.8 1.7-14.7 9.6-15.9 9.6-.5 0-.9.4-.9 1 0 .5-.7 1-1.5 1s-1.5.4-1.5 1c0 .5-.4 1-1 1-1 0-19.5 11.1-21.7 13-.7.6-1.3.8-1.3.4s-1 .2-2.2 1.3c-1.3 1.1-3 2.3-3.8 2.7-1.8.8-4 2.1-10 6.1-2.5 1.6-4.8 2.8-5.2 2.7-.5-.1-.8.3-.8.8 0 .6-.7 1-1.5 1s-1.5.4-1.5 1c0 .5-.4 1-.9 1s-3.8 1.8-7.2 3.9c-8.4 5.2-20.6 12.6-24.4 14.8-1.6 1-3.2 2-3.5 2.3-.4.5-15.8 9.9-23 14.1-1.3.8-3 1.9-3.6 2.5-.7.6-2.6 1.7-4.3 2.4-1.7.7-3.1 1.7-3.1 2.3 0 .6-.3.8-.6.4-.3-.3-1.1-.2-1.8.4-2.4 2-8.7 5.9-9.6 5.9-.6 0-1 .4-1 1 0 .5-.6 1-1.4 1-.7 0-2.4.9-3.7 1.9-1.4 1-3.9 2.7-5.6 3.7-8.9 5.3-13.3 7.9-17.8 10.8-2.8 1.7-5.9 3.6-7 4.3-3.3 2-11.8 7.3-14 8.6-1.1.7-4.5 2.8-7.7 4.9-3.1 2-6.6 3.9-7.7 4.3-1.2.3-2.1 1-2.1 1.5 0 .4-.8 1-1.7 1.4-1.8.5-5.3 2.6-6.3 3.6-.3.3-5 3.2-10.5 6.5s-14.1 8.6-19.2 11.7c-5.1 3.2-9.5 5.8-9.8 5.8-.4 0-2.1 1.1-3.8 2.4-1.8 1.3-5 3.5-7.3 4.7-10.3 5.9-35 21.4-35.6 22.3-.4.6-.8.8-.8.4s-4.5 2.2-10 5.7c-5.5 3.6-10.2 6.5-10.5 6.5-.3 0-3.3 1.8-6.6 4s-6.5 4-7 4-.9.4-.9 1c0 .5-.4 1-.9 1s-5.3 2.7-10.7 6.1c-5.5 3.3-10.8 6.6-11.9 7.2-1 .7-5.7 3.6-10.2 6.4-4.6 2.9-8.6 5.3-8.8 5.3-.3 0-3.6 2-7.5 4.5s-7.4 4.5-7.9 4.5-1.1.4-1.3.8c-.1.5-3.7 2.8-7.8 5.2-4.1 2.4-7.7 4.6-8 4.9-.3.3-1.5 1.2-2.7 1.8-4.8 2.7-6.7 3.8-7.7 4.6-2 1.4-36.9 22.7-37.3 22.7-.7 0-6.8 4.5-7.1 5.2-.2.5-1.2.8-2.3.8-1 0-1.9.4-1.9 1 0 .5-.4 1-1 1-.5 0-2.6 1.1-4.6 2.5l-3.6 2.5-2.8-2c-1.6-1.1-3.1-2-3.4-2-.7 0-10-6.1-12.3-8-.7-.5-1.7-1-2.2-1-.5 0-1.6-.6-2.3-1.3-1.9-1.7-6.9-4.7-9-5.4-1-.3-1.8-.9-1.8-1.4 0-.5-.5-.9-1.1-.9-.6 0-3-1.4-5.4-3-2.4-1.7-4.8-3-5.4-3-.6 0-1.1-.4-1.1-.9s-.8-1.1-1.7-1.4c-1.7-.5-6.4-3.2-8.8-5-3.4-2.5-13.7-8.7-14.5-8.7-.6 0-1-.5-1-1 0-.6-.5-1-1.1-1-.6 0-3.1-1.4-5.6-3-2.4-1.7-4.8-3-5.4-3-.5 0-.9-.4-.9-.9s-.8-1.1-1.7-1.5c-1-.3-2.7-1.1-3.8-1.8-10.2-6.7-13.8-8.8-14.6-8.8-.5 0-.9-.5-.9-1 0-.6-.3-.9-.7-.8-.8.2-4.1-1.7-9.5-5.3-1.5-1.1-3.2-1.9-3.8-1.9-.5 0-1-.4-1-.8s-2.9-2.4-6.5-4.3c-3.6-1.8-6.5-3.7-6.5-4.2 0-.4-.4-.7-1-.7-.5 0-4-1.9-7.7-4.3-8.1-5-7.6-4.7-23.3-14.3-6.9-4.2-12.8-8.1-13.1-8.6-.3-.5-.9-.9-1.3-.8-.4 0-4.6-2.3-9.4-5.3-4.8-3-12-7.4-16-9.8-4-2.4-9.1-5.6-11.5-7.1-2.3-1.5-6.9-4.3-10.2-6.3-3.3-2-7.6-4.6-9.6-5.8-1.9-1.2-6.9-4.2-11-6.7-4.1-2.4-8-5-8.7-5.7-.7-.7-2-1.3-2.8-1.3-.8 0-1.4-.5-1.4-1 0-.6-.5-1-1.1-1-.6 0-3-1.4-5.4-3-2.4-1.7-4.8-3-5.4-3-.6 0-1.1-.5-1.1-1 0-.6-.4-1-1-1-.5 0-5.9-3.2-12.1-7-6.1-3.9-11.5-7-12-7s-.9-.5-.9-1c0-.6-.5-1-1.1-1-.6 0-3.1-1.4-5.6-3-2.4-1.7-5.8-3.7-7.6-4.6-1.8-.9-3.4-2-3.7-2.3-.3-.3-1.4-1.1-2.5-1.8-1.1-.6-6.7-4-12.4-7.5s-11.9-7.2-13.7-8.3c-1.8-1.1-7.9-4.8-13.4-8.3-5.6-3.4-10.5-6.2-11.1-6.2-.5 0-.9-.4-.9-.8 0-.5-1.2-1.5-2.7-2.3-1.6-.7-4.7-2.6-7-4.1-2.3-1.5-4.4-2.8-4.7-2.8-.3 0-2.5-1.4-4.9-3-2.5-1.7-5-3-5.6-3-.6 0-1.1-.5-1.1-1 0-.6-.6-1-1.4-1-.8 0-1.6-.4-1.8-.8-.1-.5-3-2.3-6.3-4.2-6.2-3.5-12.2-7.3-14.1-8.9-.6-.5-2-1.2-3.2-1.5-1.2-.4-2.2-1.2-2.2-1.7s-.4-.9-.9-.9-3.8-1.8-7.2-3.9c-13.3-8.2-23.3-14.1-24.1-14.1-.4 0-.8-.4-.8-.9s-1.5-1.6-3.2-2.5c-1.8-.9-4.5-2.5-6-3.4-2.4-1.6-9.2-5.7-16.3-9.9-1.6-1-3.2-2.1-3.5-2.4-.3-.4-1.5-.9-2.7-1.3-1.3-.4-2.3-1.1-2.3-1.6 0-.4-1.3-1.3-3-1.9-1.6-.5-3-1.5-3-2 0-.6-.5-1.1-1.1-1.1-1 0-15.7-8.7-16.9-10-.3-.3-1.8-1.2-3.5-2-1.6-.8-3.2-1.7-3.5-2-.3-.3-5-3.3-10.4-6.5-5.5-3.3-11.4-6.9-13.2-8-1.8-1.1-5.4-3.3-8.1-4.9-2.6-1.6-5-3.2-5.3-3.5-.3-.3-2.5-1.7-5-3s-5.2-2.9-6-3.6c-.8-.7-3.6-2.4-6.1-3.9l-4.6-2.6H324.2c-177.8 0-323.2.4-323.2.8z"/></svg>